<svg width="37.000000" height="25.000000" viewBox="0 0 37 25" fill="none" xmlns="http://www.w3.org/2000/svg" xmlns:xlink="http://www.w3.org/1999/xlink">
	<desc>
			Created with Pixso.
	</desc>
	<defs/>
	<path id="icon/navigation/menu_24px" d="M2.05554 3.77783C0.925049 3.77783 0 2.85278 0 1.72241C0 0.591797 0.925049 -0.333252 2.05554 -0.333252L34.9445 -0.333252C36.075 -0.333252 37 0.591797 37 1.72241C37 2.85278 36.075 3.77783 34.9445 3.77783L2.05554 3.77783ZM2.05554 14.0557L34.9445 14.0557C36.075 14.0557 37 13.1306 37 12C37 10.8696 36.075 9.94458 34.9445 9.94458L2.05554 9.94458C0.925049 9.94458 0 10.8696 0 12C0 13.1306 0.925049 14.0557 2.05554 14.0557ZM2.05554 24.3335L34.9445 24.3335C36.075 24.3335 37 23.4084 37 22.2778C37 21.1472 36.075 20.2224 34.9445 20.2224L2.05554 20.2224C0.925049 20.2224 0 21.1472 0 22.2778C0 23.4084 0.925049 24.3335 2.05554 24.3335Z" clip-rule="evenodd" fill="#F5F5F5" fill-opacity="1.000000" fill-rule="evenodd"/>
</svg>
