<svg width="37.000000" height="24.000000" viewBox="0 0 37 24" fill="none" xmlns="http://www.w3.org/2000/svg" xmlns:xlink="http://www.w3.org/1999/xlink">
	<desc>
			Created with Pixso.
	</desc>
	<defs/>
	<path id="icon/navigation/menu_24px" d="M2.05566 3.27783C0.924805 3.27783 0 2.35278 0 1.22241C0 0.0917969 0.924805 -0.833252 2.05566 -0.833252L34.9443 -0.833252C36.0752 -0.833252 37 0.0917969 37 1.22241C37 2.35278 36.0752 3.27783 34.9443 3.27783L2.05566 3.27783ZM2.05566 13.5557L34.9443 13.5557C36.0752 13.5557 37 12.6306 37 11.5C37 10.3696 36.0752 9.44458 34.9443 9.44458L2.05566 9.44458C0.924805 9.44458 0 10.3696 0 11.5C0 12.6306 0.924805 13.5557 2.05566 13.5557ZM2.05566 23.8335L34.9443 23.8335C36.0752 23.8335 37 22.9084 37 21.7778C37 20.6472 36.0752 19.7224 34.9443 19.7224L2.05566 19.7224C0.924805 19.7224 0 20.6472 0 21.7778C0 22.9084 0.924805 23.8335 2.05566 23.8335Z" clip-rule="evenodd" fill="#232340" fill-opacity="1.000000" fill-rule="evenodd"/>
</svg>
