<svg width="14.000000" height="16.000000" viewBox="0 0 14 16" fill="none" xmlns="http://www.w3.org/2000/svg" xmlns:xlink="http://www.w3.org/1999/xlink">
	<desc>
			Created with Pixso.
	</desc>
	<defs/>
	<path id="icon/file/download_done_24px" d="M0.999939 7.13501L3.18994 9.32501C3.96997 10.105 5.22998 10.105 6.00995 9.33499L13.0099 2.405C13.5599 1.86499 13.5599 0.984985 13.02 0.445007L12.98 0.404999C12.4399 -0.13501 11.5699 -0.13501 11.03 0.404999L4.59998 6.83499L2.94995 5.185C2.42999 4.66501 1.56995 4.64499 1.02997 5.16501C0.459961 5.69501 0.449951 6.58499 0.999939 7.13501ZM13 13.4351L1 13.4351C0.450012 13.4351 0 13.8851 0 14.4351C0 14.985 0.450012 15.4351 1 15.4351L13 15.4351C13.55 15.4351 14 14.985 14 14.4351C14 13.8851 13.55 13.4351 13 13.4351Z" clip-rule="evenodd" fill="#6D7D8B" fill-opacity="1.000000" fill-rule="evenodd"/>
</svg>
