<svg width="50.000000" height="50.000000" viewBox="0 0 50 50" fill="none" xmlns="http://www.w3.org/2000/svg" xmlns:xlink="http://www.w3.org/1999/xlink">
	<desc>
			Created with Pixso.
	</desc>
	<defs>
		<filter id="filter_11_577_dd" x="2.875290" y="5.888351" width="35.474876" height="37.158463" filterUnits="userSpaceOnUse" color-interpolation-filters="sRGB">
			<feFlood flood-opacity="0" result="BackgroundImageFix"/>
			<feBlend mode="normal" in="SourceGraphic" in2="BackgroundImageFix" result="shape"/>
			<feGaussianBlur stdDeviation="5" result="effect_layerBlur_1"/>
		</filter>
		<filter id="filter_11_579_dd" x="19.042900" y="14.526703" width="18.235191" height="17.822891" filterUnits="userSpaceOnUse" color-interpolation-filters="sRGB">
			<feFlood flood-opacity="0" result="BackgroundImageFix"/>
			<feGaussianBlur in="BackgroundImage" stdDeviation="5"/>
			<feComposite in2="SourceAlpha" operator="in" result="effect_backgroundBlur_1"/>
			<feBlend mode="normal" in="SourceGraphic" in2="effect_backgroundBlur_1" result="shape"/>
		</filter>
		<filter id="filter_11_580_dd" x="25.622009" y="30.439789" width="7.532715" height="5.061172" filterUnits="userSpaceOnUse" color-interpolation-filters="sRGB">
			<feFlood flood-opacity="0" result="BackgroundImageFix"/>
			<feGaussianBlur in="BackgroundImage" stdDeviation="5"/>
			<feComposite in2="SourceAlpha" operator="in" result="effect_backgroundBlur_1"/>
			<feBlend mode="normal" in="SourceGraphic" in2="effect_backgroundBlur_1" result="shape"/>
		</filter>
		<filter id="filter_11_581_dd" x="23.176476" y="13.139069" width="22.913773" height="23.130875" filterUnits="userSpaceOnUse" color-interpolation-filters="sRGB">
			<feFlood flood-opacity="0" result="BackgroundImageFix"/>
			<feGaussianBlur in="BackgroundImage" stdDeviation="5"/>
			<feComposite in2="SourceAlpha" operator="in" result="effect_backgroundBlur_1"/>
			<feColorMatrix in="SourceAlpha" type="matrix" values="0 0 0 0 0 0 0 0 0 0 0 0 0 0 0 0 0 0 127 0" result="hardAlpha"/>
			<feOffset dx="5" dy="5"/>
			<feGaussianBlur stdDeviation="3.33333"/>
			<feComposite in2="hardAlpha" operator="out" k2="-1" k3="1"/>
			<feColorMatrix type="matrix" values="0 0 0 0 0.15294 0 0 0 0 0.52157 0 0 0 0 0.90196 0 0 0 0.5 0"/>
			<feBlend mode="normal" in2="effect_backgroundBlur_1" result="effect_dropShadow_2"/>
			<feBlend mode="normal" in="SourceGraphic" in2="effect_dropShadow_2" result="shape"/>
		</filter>
		<linearGradient id="paint_linear_11_575_0" x1="27.603899" y1="20.618008" x2="13.691530" y2="28.082424" gradientUnits="userSpaceOnUse">
			<stop stop-color="#39AFFD"/>
			<stop offset="1.000000" stop-color="#477FFF"/>
		</linearGradient>
		<linearGradient id="paint_linear_11_576_0" x1="20.928101" y1="30.745573" x2="16.622370" y2="31.596838" gradientUnits="userSpaceOnUse">
			<stop stop-color="#39AFFD"/>
			<stop offset="1.000000" stop-color="#477FFF"/>
		</linearGradient>
		<linearGradient id="paint_linear_11_579_0" x1="20.696682" y1="18.555700" x2="33.430859" y2="28.242624" gradientUnits="userSpaceOnUse">
			<stop stop-color="#FFFFFF" stop-opacity="0.250980"/>
			<stop offset="1.000000" stop-color="#FFFFFF" stop-opacity="0.000000"/>
		</linearGradient>
		<linearGradient id="paint_linear_11_580_0" x1="27.399090" y1="32.463715" x2="31.348783" y2="33.840626" gradientUnits="userSpaceOnUse">
			<stop stop-color="#FFFFFF" stop-opacity="0.250980"/>
			<stop offset="1.000000" stop-color="#FFFFFF" stop-opacity="0.000000"/>
		</linearGradient>
		<linearGradient id="paint_linear_11_581_0" x1="30.988050" y1="18.942787" x2="26.401098" y2="20.503548" gradientUnits="userSpaceOnUse">
			<stop stop-color="#FFFFFF"/>
			<stop offset="1.000000" stop-color="#FFFFFF" stop-opacity="0.200000"/>
		</linearGradient>
		<linearGradient id="paint_linear_11_581_1" x1="29.863976" y1="20.838820" x2="30.002422" y2="18.576500" gradientUnits="userSpaceOnUse">
			<stop stop-color="#FFFFFF"/>
			<stop offset="1.000000" stop-color="#FFFFFF" stop-opacity="0.000000"/>
		</linearGradient>
	</defs>
	<g opacity="0.200000">
		<circle id="Ellipse" cx="25.000000" cy="25.000000" r="25.000000" fill="#3698F2" fill-opacity="1.000000"/>
	</g>
	<path id="Vector" d="M25.39 26.7C25.06 26.02 24.98 25.49 25.2 24.68L25.27 24.4C25.56 23.35 25.5 22.6 25.15 21.78C24.62 20.51 23.41 19.51 22.06 19.15L22.01 19.14C20.68 18.79 19.18 19.04 18.07 19.84C17.32 20.38 16.85 21.02 16.56 22.11L16.48 22.38C16.26 23.19 15.93 23.62 15.29 24.04C14.82 24.35 14.57 24.84 14.41 25.4C14.26 25.97 14.3 26.55 14.56 27.08C14.9 27.73 15.5 28.25 16.19 28.49C17.18 28.88 18.19 29.19 19.23 29.46C20.26 29.74 21.3 29.93 22.35 30.12C23.07 30.24 23.85 30.09 24.48 29.7C24.97 29.37 25.3 28.88 25.45 28.32C25.61 27.75 25.64 27.2 25.39 26.7Z" fill="url(#paint_linear_11_575_0)" fill-opacity="1.000000" fill-rule="nonzero"/>
	<path id="Vector" d="M20.32 30.64C20.01 30.48 18.03 29.96 17.69 29.94C17.39 29.93 17.05 30 16.96 30.33C16.89 30.64 17 30.96 17.21 31.2L17.21 31.2C17.47 31.54 17.81 31.81 18.19 31.97C18.4 32.06 18.62 32.11 18.85 32.14C19.26 32.19 19.69 32.13 20.09 31.97L20.09 31.96C20.39 31.86 20.65 31.63 20.75 31.33C20.84 31 20.58 30.77 20.32 30.64Z" fill="url(#paint_linear_11_576_0)" fill-opacity="1.000000" fill-rule="nonzero"/>
	<g opacity="0.500000" filter="url(#filter_11_577_dd)">
		<path id="Vector" d="M23.13 25.67C23.01 25.25 22.99 24.91 23.14 24.37L23.19 24.19C23.38 23.49 23.39 23.01 23.26 22.5C23.07 21.7 22.55 21.11 21.92 20.94L21.89 20.93C21.28 20.77 20.55 21.01 19.98 21.58C19.59 21.97 19.34 22.4 19.14 23.12L19.09 23.3C18.95 23.84 18.77 24.13 18.44 24.43C18.2 24.66 18.05 24.99 17.95 25.36C17.85 25.73 17.84 26.11 17.94 26.44C18.07 26.85 18.33 27.15 18.65 27.28C19.1 27.48 19.57 27.63 20.05 27.76C20.53 27.89 21.02 27.96 21.51 28.03C21.84 28.08 22.22 27.94 22.54 27.66C22.8 27.42 22.98 27.09 23.08 26.71C23.18 26.34 23.22 25.98 23.13 25.67Z" fill="#0062FF" fill-opacity="1.000000" fill-rule="nonzero"/>
	</g>
	<g filter="url(#filter_11_579_dd)">
		<path id="Vector" d="M35.04 23.15C34.18 22.5 33.72 21.87 33.47 20.7L33.39 20.3C33.06 18.77 32.5 17.86 31.51 17.04C30 15.75 27.8 15.25 25.83 15.66L25.75 15.68C23.83 16.08 22.07 17.36 21.17 19.08C20.57 20.26 20.39 21.37 20.73 22.94L20.81 23.34C21.06 24.51 20.92 25.27 20.38 26.21C19.98 26.91 19.97 27.7 20.15 28.51C20.32 29.33 20.76 30.05 21.43 30.56C22.3 31.17 23.41 31.44 24.45 31.31C25.97 31.17 27.47 30.92 28.97 30.61C30.48 30.3 31.94 29.88 33.39 29.45C34.4 29.15 35.3 28.46 35.85 27.56C36.26 26.81 36.37 25.98 36.19 25.16C36.02 24.35 35.69 23.63 35.04 23.15Z" fill="#3EA0FE" fill-opacity="0.350000" fill-rule="nonzero"/>
	</g>
	<path id="Vector" d="M34.86 21.57Q34.59 21.16 34.45 20.49L34.37 20.1Q34.09 18.81 33.56 17.9Q33.04 17.02 32.16 16.27Q31.5 15.72 30.7 15.33Q30.68 15.32 30.66 15.3Q29.9 14.94 29.07 14.74Q28.62 14.64 28.17 14.58Q27.76 14.53 27.35 14.52Q26.47 14.51 25.63 14.68L25.62 14.68L25.54 14.7Q25.5 14.71 25.47 14.72Q24.68 14.89 23.93 15.23Q23.6 15.38 23.28 15.56Q22.87 15.8 22.48 16.08Q21.87 16.53 21.37 17.08Q21.3 17.15 21.24 17.23Q20.67 17.88 20.28 18.62Q19.74 19.69 19.6 20.74Q19.47 21.83 19.75 23.15L19.83 23.54Q19.98 24.23 19.9 24.7Q19.83 25.15 19.51 25.71Q19.43 25.84 19.37 25.97Q18.83 27.14 19.17 28.72Q19.29 29.3 19.55 29.82Q19.64 30 19.75 30.18Q19.93 30.47 20.15 30.72Q20.45 31.07 20.83 31.36Q20.84 31.36 20.85 31.37Q20.85 31.38 20.86 31.38Q21.13 31.57 21.42 31.72Q21.99 32.02 22.64 32.18Q23.31 32.35 23.98 32.34Q24.27 32.34 24.56 32.31Q26.7 32.11 29.18 31.59Q30.24 31.37 31.46 31.04Q32.39 30.79 33.68 30.4Q33.95 30.33 34.21 30.22Q34.84 29.95 35.41 29.52Q35.93 29.12 36.33 28.61Q36.54 28.36 36.71 28.08Q36.71 28.07 36.72 28.06Q36.72 28.05 36.73 28.04Q36.95 27.63 37.09 27.18Q37.18 26.86 37.23 26.53Q37.26 26.32 37.27 26.11Q37.29 25.54 37.17 24.96Q36.83 23.38 35.86 22.53Q35.75 22.43 35.64 22.35Q35.11 21.95 34.86 21.57ZM24.45 31.31C25.97 31.17 27.47 30.92 28.97 30.61C30.48 30.3 31.94 29.88 33.39 29.45C34.4 29.15 35.3 28.46 35.85 27.56C36.26 26.81 36.37 25.98 36.19 25.16C36.02 24.35 35.69 23.63 35.04 23.15C34.18 22.5 33.72 21.87 33.47 20.7L33.39 20.3C33.06 18.77 32.5 17.86 31.51 17.04C30 15.75 27.8 15.25 25.83 15.66L25.75 15.68C23.83 16.08 22.07 17.36 21.17 19.08C20.57 20.26 20.39 21.37 20.73 22.94L20.81 23.34C21.06 24.51 20.92 25.27 20.38 26.21C19.98 26.91 19.97 27.7 20.15 28.51C20.32 29.33 20.76 30.05 21.43 30.56C22.3 31.17 23.41 31.44 24.45 31.31Z" fill="url(#paint_linear_11_579_0)" fill-opacity="1.000000" fill-rule="evenodd"/>
	<g filter="url(#filter_11_580_dd)">
		<path id="Vector" d="M31.13 31.43C30.63 31.43 27.76 32.03 27.31 32.23C26.92 32.41 26.53 32.71 26.63 33.18C26.75 33.63 27.1 33.97 27.52 34.14L27.52 34.14C28.08 34.41 28.69 34.53 29.29 34.49C29.61 34.47 29.92 34.4 30.24 34.29C30.8 34.09 31.31 33.74 31.71 33.27L31.71 33.27C32.02 32.94 32.2 32.49 32.13 32.04C32.03 31.57 31.55 31.44 31.13 31.43Z" fill="#3EA0FE" fill-opacity="0.350000" fill-rule="nonzero"/>
	</g>
	<path id="Vector" d="M28.99 30.78Q27.34 31.13 26.9 31.32L26.89 31.32Q26.34 31.57 26.02 31.95Q25.83 32.18 25.73 32.45Q25.7 32.51 25.68 32.58Q25.64 32.73 25.62 32.88Q25.6 33.13 25.66 33.39Q25.66 33.4 25.66 33.41Q25.66 33.43 25.67 33.44Q25.72 33.65 25.82 33.85Q25.98 34.17 26.24 34.45Q26.37 34.58 26.51 34.69Q26.77 34.9 27.08 35.04Q27.09 35.04 27.09 35.04Q27.37 35.18 27.65 35.27Q27.92 35.36 28.2 35.41Q28.49 35.47 28.78 35.49Q29.07 35.5 29.35 35.49Q29.96 35.44 30.57 35.24Q31.1 35.04 31.55 34.74Q31.58 34.72 31.61 34.7Q31.84 34.54 32.05 34.35Q32.28 34.15 32.47 33.92Q32.48 33.92 32.48 33.91Q32.71 33.66 32.87 33.37Q32.95 33.21 33.01 33.04Q33.14 32.68 33.15 32.32Q33.16 32.1 33.12 31.88Q33.12 31.87 33.12 31.86Q33.11 31.84 33.11 31.83Q33.06 31.58 32.93 31.36Q32.86 31.22 32.76 31.1Q32.71 31.05 32.66 31Q32.46 30.8 32.19 30.66Q31.74 30.45 31.14 30.43Q30.65 30.43 28.99 30.78ZM31.71 33.27C31.85 33.12 31.97 32.95 32.04 32.76C32.14 32.53 32.17 32.28 32.13 32.04C32.03 31.57 31.55 31.44 31.13 31.43C30.63 31.43 27.76 32.03 27.31 32.23C26.92 32.41 26.53 32.71 26.63 33.18C26.7 33.43 26.83 33.64 27.01 33.81C27.16 33.95 27.33 34.06 27.52 34.14L27.52 34.14L27.52 34.14L27.52 34.14C27.83 34.29 28.15 34.39 28.48 34.45C28.75 34.49 29.02 34.51 29.29 34.49C29.61 34.47 29.92 34.4 30.24 34.29C30.49 34.2 30.73 34.08 30.96 33.93C31.24 33.75 31.49 33.53 31.71 33.27L31.71 33.27L31.71 33.27L31.71 33.27Z" fill="url(#paint_linear_11_580_0)" fill-opacity="1.000000" fill-rule="evenodd"/>
	<g filter="url(#filter_11_581_dd)">
		<path id="Vector" d="M28.98 18.15C28.64 18.07 28.29 18.27 28.19 18.59C28.15 18.77 28.18 18.96 28.28 19.11C28.38 19.26 28.54 19.37 28.73 19.41L28.75 19.41C29.31 19.58 29.71 20.07 29.75 20.63C29.76 20.99 30.08 21.28 30.45 21.26C30.82 21.25 31.1 20.94 31.08 20.59C31 19.46 30.2 18.49 29.08 18.18L28.98 18.15Z" fill="url(#paint_linear_11_581_0)" fill-opacity="1.000000" fill-rule="nonzero"/>
	</g>
	<path id="Vector" d="M28.73 19.41C28.54 19.37 28.38 19.26 28.28 19.11C28.18 18.96 28.15 18.77 28.19 18.59C28.29 18.27 28.64 18.07 28.98 18.15L29.08 18.18C30.2 18.49 31 19.46 31.08 20.59C31.1 20.94 30.82 21.25 30.45 21.26C30.08 21.28 29.76 20.99 29.75 20.63C29.71 20.07 29.31 19.58 28.75 19.41L28.73 19.41ZM30.88 20.6Q30.87 20.43 30.84 20.26Q30.79 20.05 30.71 19.85Q30.65 19.71 30.58 19.58Q30.47 19.38 30.32 19.2Q30.2 19.06 30.07 18.94Q29.92 18.81 29.74 18.69Q29.59 18.59 29.43 18.52Q29.23 18.43 29.02 18.37L28.93 18.34Q28.85 18.33 28.77 18.34Q28.68 18.35 28.59 18.4Q28.5 18.45 28.44 18.53Q28.4 18.58 28.38 18.64Q28.36 18.78 28.4 18.89Q28.41 18.95 28.45 19Q28.5 19.07 28.56 19.12Q28.65 19.19 28.77 19.21L28.78 19.21L28.81 19.22Q29.06 19.29 29.26 19.43Q29.45 19.56 29.6 19.75Q29.78 19.96 29.86 20.21Q29.93 20.4 29.95 20.61Q29.95 20.71 29.99 20.79Q30.03 20.87 30.1 20.94Q30.17 21.01 30.26 21.04Q30.34 21.07 30.44 21.07Q30.54 21.06 30.62 21.02Q30.7 20.98 30.76 20.92Q30.83 20.84 30.86 20.76Q30.89 20.69 30.88 20.6Z" fill="url(#paint_linear_11_581_1)" fill-opacity="0.500000" fill-rule="evenodd"/>
</svg>
