<svg width="50.000000" height="50.000000" viewBox="0 0 50 50" fill="none" xmlns="http://www.w3.org/2000/svg" xmlns:xlink="http://www.w3.org/1999/xlink">
	<desc>
			Created with Pixso.
	</desc>
	<defs>
		<filter id="filter_11_340_dd" x="1.000000" y="2.704651" width="39.414215" height="39.275421" filterUnits="userSpaceOnUse" color-interpolation-filters="sRGB">
			<feFlood flood-opacity="0" result="BackgroundImageFix"/>
			<feBlend mode="normal" in="SourceGraphic" in2="BackgroundImageFix" result="shape"/>
			<feGaussianBlur stdDeviation="5.66667" result="effect_layerBlur_1"/>
		</filter>
		<filter id="filter_11_345_dd" x="16.500122" y="14.000000" width="21.499939" height="21.000000" filterUnits="userSpaceOnUse" color-interpolation-filters="sRGB">
			<feFlood flood-opacity="0" result="BackgroundImageFix"/>
			<feGaussianBlur in="BackgroundImage" stdDeviation="8"/>
			<feComposite in2="SourceAlpha" operator="in" result="effect_backgroundBlur_1"/>
			<feBlend mode="normal" in="SourceGraphic" in2="effect_backgroundBlur_1" result="shape"/>
		</filter>
		<linearGradient id="paint_linear_11_339_0" x1="19.617727" y1="19.551514" x2="19.617727" y2="32.447678" gradientUnits="userSpaceOnUse">
			<stop stop-color="#BC94FF"/>
			<stop offset="1.000000" stop-color="#9F66FF"/>
		</linearGradient>
		<linearGradient id="paint_linear_11_345_0" x1="20.604198" y1="17.213522" x2="33.020489" y2="32.242195" gradientUnits="userSpaceOnUse">
			<stop stop-color="#FFFFFF" stop-opacity="0.250980"/>
			<stop offset="1.000000" stop-color="#FFFFFF" stop-opacity="0.000000"/>
		</linearGradient>
	</defs>
	<g opacity="0.200000">
		<circle id="Ellipse" cx="25.000000" cy="25.000000" r="25.000000" fill="#9436F2" fill-opacity="1.000000"/>
	</g>
	<path id="Union" d="M24.8271 19.5515L14.4084 19.5515C13.6302 19.5515 13 20.1848 13 20.9658L13 21.9745C13 22.3335 13.1356 22.6796 13.3802 22.9415L17.3362 27.1809C17.37 27.217 17.4098 27.2461 17.4533 27.2672L17.4533 31.9348C17.4533 32.1092 17.5419 32.2719 17.6884 32.3663C17.7722 32.4203 17.8683 32.4477 17.9643 32.4477C18.0366 32.4477 18.1088 32.4326 18.1769 32.4019L21.0931 31.0676C21.2758 30.9835 21.3929 30.8016 21.3929 30.6005L21.3929 27.2831C21.4356 27.264 21.475 27.2371 21.5089 27.2035L25.8137 22.9607C26.0835 22.6953 26.2355 22.3315 26.2355 21.9526L26.2355 20.9651C26.2355 20.1841 25.6052 19.5515 24.8271 19.5515Z" clip-rule="evenodd" fill="url(#paint_linear_11_339_0)" fill-opacity="1.000000" fill-rule="evenodd"/>
	<g filter="url(#filter_11_340_dd)">
		<rect id="Rectangle" x="20.000000" y="18.897461" rx="1.974531" width="5.923594" height="3.949062" transform="rotate(44.2561 20.000000 18.897461)" fill="#8237FF" fill-opacity="0.500000"/>
	</g>
	<g filter="url(#filter_11_345_dd)">
		<mask id="mask_11_345" fill="white">
			<path id="Union" d="M19.5751 15L34.9251 15C36.0715 15 37.0001 15.932 37.0001 17.0826L37.0001 18.5376C37.0001 19.0958 36.7762 19.6318 36.3787 20.0227L30.0363 26.2737C29.9269 26.3825 29.7783 26.443 29.6247 26.442L24.3143 26.4258C24.1527 26.4258 23.9991 26.3583 23.8887 26.2404L18.0603 19.9945C17.6999 19.6086 17.5001 19.0988 17.5001 18.5698L17.5001 17.0836C17.5001 15.933 18.4287 15 19.5751 15ZM29.3317 28.147L24.5985 28.1329C24.3023 28.1319 24.0614 28.3727 24.0614 28.67L24.0614 33.2443C24.0614 33.5013 24.1919 33.7411 24.4077 33.8801C24.5312 33.9597 24.6728 34 24.8143 34C24.9207 34 25.0271 33.9778 25.1275 33.9325L29.424 31.9667C29.6931 31.8428 29.8657 31.5748 29.8657 31.2785L29.8657 28.6841C29.8657 28.3888 29.6268 28.148 29.3317 28.147Z" clip-rule="evenodd" fill="" fill-opacity="1.000000" fill-rule="evenodd"/>
		</mask>
		<path id="Union" d="M19.5751 15L34.9251 15C36.0715 15 37.0001 15.932 37.0001 17.0826L37.0001 18.5376C37.0001 19.0958 36.7762 19.6318 36.3787 20.0227L30.0363 26.2737C29.9269 26.3825 29.7783 26.443 29.6247 26.442L24.3143 26.4258C24.1527 26.4258 23.9991 26.3583 23.8887 26.2404L18.0603 19.9945C17.6999 19.6086 17.5001 19.0988 17.5001 18.5698L17.5001 17.0836C17.5001 15.933 18.4287 15 19.5751 15ZM29.3317 28.147L24.5985 28.1329C24.3023 28.1319 24.0614 28.3727 24.0614 28.67L24.0614 33.2443C24.0614 33.5013 24.1919 33.7411 24.4077 33.8801C24.5312 33.9597 24.6728 34 24.8143 34C24.9207 34 25.0271 33.9778 25.1275 33.9325L29.424 31.9667C29.6931 31.8428 29.8657 31.5748 29.8657 31.2785L29.8657 28.6841C29.8657 28.3888 29.6268 28.148 29.3317 28.147Z" clip-rule="evenodd" fill="#BA90FF" fill-opacity="0.350000" fill-rule="evenodd" mask="url(#mask_11_345)"/>
	</g>
	<path id="Union" d="M34.9251 14L19.5751 14Q19.2405 14 18.921 14.0695Q18.6429 14.1301 18.3763 14.2433Q18.1151 14.3543 17.8824 14.5082Q17.6231 14.6798 17.399 14.9048Q17.1809 15.1238 17.0134 15.3765Q16.8548 15.6155 16.7415 15.8846Q16.6304 16.1485 16.5704 16.4236Q16.5001 16.746 16.5001 17.0836L16.5001 18.5698Q16.5001 18.8677 16.5554 19.1549Q16.6089 19.4331 16.7143 19.7014Q16.8261 19.9861 16.9881 20.2387Q17.1373 20.4714 17.3292 20.6768L23.1588 26.9241Q23.2736 27.0466 23.4083 27.1407Q23.5363 27.2301 23.6822 27.2938Q23.7489 27.323 23.8169 27.3457Q23.7816 27.3664 23.7476 27.3891Q23.6213 27.473 23.5119 27.5824Q23.4038 27.6904 23.3205 27.815Q23.2401 27.9353 23.1826 28.071Q23.1244 28.2089 23.0941 28.3527Q23.0614 28.5079 23.0614 28.67L23.0614 33.2443Q23.0614 33.4675 23.1147 33.6772Q23.1682 33.8878 23.2755 34.0847Q23.3834 34.2829 23.5324 34.4428Q23.6793 34.6004 23.8662 34.7207Q24.084 34.8611 24.3224 34.931Q24.5583 35 24.8143 35Q25.0023 35 25.1821 34.9616Q25.3649 34.9226 25.5392 34.8438L29.8401 32.8761Q30.0843 32.7636 30.2766 32.5927Q30.4539 32.4351 30.5871 32.2278Q30.7263 32.0111 30.7959 31.7741Q30.8657 31.5366 30.8657 31.2785L30.8657 28.6841Q30.8657 28.524 30.8338 28.3706Q30.8037 28.2261 30.7453 28.0875Q30.6886 27.9527 30.609 27.8331Q30.5262 27.7085 30.4187 27.6003Q30.3101 27.491 30.1846 27.4069Q30.1517 27.3848 30.1175 27.3644Q30.1717 27.3466 30.2251 27.3248Q30.3998 27.2535 30.5489 27.1464Q30.6494 27.0743 30.7383 26.9859L37.0798 20.7357Q37.2951 20.5241 37.4623 20.2796Q37.6382 20.0223 37.761 19.7287Q37.8807 19.4425 37.9405 19.1442Q38.0001 18.8469 38.0001 18.5376L38.0001 17.0826Q38.0001 16.7442 37.9295 16.4211Q37.8695 16.1468 37.7586 15.8836Q37.6453 15.6146 37.4868 15.3757Q37.3191 15.1231 37.1009 14.904Q36.8773 14.6796 36.6185 14.5084Q36.3853 14.3541 36.1236 14.2431Q35.8573 14.1301 35.5796 14.0696Q35.2599 14 34.9251 14ZM34.9251 15L19.5751 15C18.4287 15 17.5001 15.933 17.5001 17.0836L17.5001 18.5698C17.5001 19.0988 17.6999 19.6086 18.0603 19.9945L23.8887 26.2404C23.9991 26.3583 24.1527 26.4258 24.3143 26.4258L29.6247 26.442C29.7783 26.443 29.9269 26.3825 30.0363 26.2737L36.3787 20.0227C36.7762 19.6318 37.0001 19.0958 37.0001 18.5376L37.0001 17.0826C37.0001 15.932 36.0715 15 34.9251 15ZM24.5985 28.1329L29.3317 28.147C29.6268 28.148 29.8657 28.3888 29.8657 28.6841L29.8657 31.2785C29.8657 31.5748 29.6931 31.8428 29.424 31.9667L25.1275 33.9325C25.0271 33.9778 24.9207 34 24.8143 34C24.6728 34 24.5312 33.9597 24.4077 33.8801C24.1919 33.7411 24.0614 33.5013 24.0614 33.2443L24.0614 28.67C24.0614 28.3727 24.3023 28.1319 24.5985 28.1329Z" clip-rule="evenodd" fill="url(#paint_linear_11_345_0)" fill-opacity="1.000000" fill-rule="evenodd"/>
</svg>
