<svg width="50.000000" height="54.000000" viewBox="0 0 50 54" fill="none" xmlns="http://www.w3.org/2000/svg" xmlns:xlink="http://www.w3.org/1999/xlink">
	<desc>
			Created with Pixso.
	</desc>
	<defs>
		<filter id="filter_11_476_dd" x="0.716621" y="-0.044098" width="48.729530" height="48.252808" filterUnits="userSpaceOnUse" color-interpolation-filters="sRGB">
			<feFlood flood-opacity="0" result="BackgroundImageFix"/>
			<feBlend mode="normal" in="SourceGraphic" in2="BackgroundImageFix" result="shape"/>
			<feGaussianBlur stdDeviation="6.66667" result="effect_layerBlur_1"/>
		</filter>
		<filter id="filter_11_478_dd" x="12.000000" y="21.059570" width="26.000000" height="23.940308" filterUnits="userSpaceOnUse" color-interpolation-filters="sRGB">
			<feFlood flood-opacity="0" result="BackgroundImageFix"/>
			<feGaussianBlur in="BackgroundImage" stdDeviation="8"/>
			<feComposite in2="SourceAlpha" operator="in" result="effect_backgroundBlur_1"/>
			<feBlend mode="normal" in="SourceGraphic" in2="effect_backgroundBlur_1" result="shape"/>
		</filter>
		<filter id="filter_11_479_dd" x="15.613220" y="23.398682" width="28.772972" height="28.564026" filterUnits="userSpaceOnUse" color-interpolation-filters="sRGB">
			<feFlood flood-opacity="0" result="BackgroundImageFix"/>
			<feGaussianBlur in="BackgroundImage" stdDeviation="5"/>
			<feComposite in2="SourceAlpha" operator="in" result="effect_backgroundBlur_1"/>
			<feColorMatrix in="SourceAlpha" type="matrix" values="0 0 0 0 0 0 0 0 0 0 0 0 0 0 0 0 0 0 127 0" result="hardAlpha"/>
			<feOffset dx="5" dy="5"/>
			<feGaussianBlur stdDeviation="3.33333"/>
			<feComposite in2="hardAlpha" operator="out" k2="-1" k3="1"/>
			<feColorMatrix type="matrix" values="0 0 0 0 0.15294 0 0 0 0 0.52157 0 0 0 0 0.90196 0 0 0 0.5 0"/>
			<feBlend mode="normal" in2="effect_backgroundBlur_1" result="effect_dropShadow_2"/>
			<feBlend mode="normal" in="SourceGraphic" in2="effect_dropShadow_2" result="shape"/>
		</filter>
		<linearGradient id="paint_linear_11_475_0" x1="22.348059" y1="14.786923" x2="28.730869" y2="33.233311" gradientUnits="userSpaceOnUse">
			<stop stop-color="#39AFFD"/>
			<stop offset="1.000000" stop-color="#477FFF"/>
		</linearGradient>
		<linearGradient id="paint_linear_11_478_0" x1="16.820412" y1="24.615643" x2="36.363403" y2="42.955097" gradientUnits="userSpaceOnUse">
			<stop stop-color="#FFFFFF" stop-opacity="0.250980"/>
			<stop offset="1.000000" stop-color="#FFFFFF" stop-opacity="0.000000"/>
		</linearGradient>
		<linearGradient id="paint_linear_11_479_0" x1="28.764194" y1="29.945177" x2="19.313789" y2="39.892536" gradientUnits="userSpaceOnUse">
			<stop stop-color="#FFFFFF"/>
			<stop offset="1.000000" stop-color="#FFFFFF" stop-opacity="0.200000"/>
		</linearGradient>
		<linearGradient id="paint_linear_11_479_1" x1="21.558262" y1="31.271505" x2="29.000454" y2="32.597816" gradientUnits="userSpaceOnUse">
			<stop stop-color="#FFFFFF"/>
			<stop offset="1.000000" stop-color="#FFFFFF" stop-opacity="0.000000"/>
		</linearGradient>
	</defs>
	<g opacity="0.200000">
		<circle id="Ellipse" cx="25.000000" cy="29.000000" r="25.000000" fill="#36A3F2" fill-opacity="1.000000"/>
	</g>
	<path id="Vector" d="M20.05 26.93C17.91 25.05 17.51 21.84 19.11 19.5C20.72 17.15 23.82 16.42 26.3 17.8L29.79 19.75C32.9 21.48 33.86 25.55 31.84 28.49C29.83 31.43 25.74 31.94 23.06 29.58L20.05 26.93Z" fill="url(#paint_linear_11_475_0)" fill-opacity="1.000000" fill-rule="nonzero"/>
	<g opacity="0.500000" filter="url(#filter_11_476_dd)">
		<path id="Vector" d="M21.84 25.76C20.58 24.65 20.34 22.75 21.29 21.36C22.24 19.98 24.07 19.55 25.54 20.36L27.61 21.51C29.44 22.54 30.01 24.94 28.82 26.68C27.63 28.42 25.21 28.72 23.62 27.33L21.84 25.76Z" fill="#0062FF" fill-opacity="1.000000" fill-rule="nonzero"/>
	</g>
	<g filter="url(#filter_11_478_dd)">
		<path id="Vector" d="M36.09 34.82C35.11 34.82 34.31 34.02 34.31 33.03C34.31 32.03 35.11 31.23 36.09 31.23C36.33 31.23 36.56 31.13 36.73 30.96C36.9 30.79 37 30.56 37 30.32L36.99 27.06C36.99 24.3 34.76 22.05 32.02 22.05L17.97 22.05C15.23 22.05 13 24.3 13 27.06L13 30.43C13 30.67 13.09 30.9 13.26 31.07C13.43 31.24 13.66 31.33 13.9 31.33C14.91 31.33 15.68 32.06 15.68 33.03C15.68 34.02 14.88 34.82 13.9 34.82C13.4 34.82 13 35.23 13 35.73L13 38.99C13 41.75 15.22 43.99 17.97 43.99L32.02 43.99C34.77 43.99 37 41.75 37 38.99L37 35.73C37 35.23 36.59 34.82 36.09 34.82Z" fill="#3EA0FE" fill-opacity="0.350000" fill-rule="nonzero"/>
	</g>
	<path id="Vector" d="M35.51 33.63Q35.31 33.43 35.31 33.03Q35.31 32.62 35.51 32.42Q35.71 32.23 36.09 32.23Q36.49 32.23 36.83 32.09Q37.16 31.95 37.44 31.67Q37.72 31.39 37.86 31.05Q38 30.72 38 30.32L37.99 27.06Q37.99 25.82 37.56 24.76Q37.12 23.7 36.25 22.82Q35.35 21.92 34.28 21.48Q33.24 21.05 32.02 21.05L17.97 21.05Q16.75 21.05 15.71 21.48Q14.64 21.92 13.74 22.82Q12.87 23.7 12.43 24.75Q12 25.82 12 27.06L12 30.43Q12 30.82 12.14 31.16Q12.27 31.49 12.55 31.77Q12.83 32.05 13.16 32.19Q13.5 32.33 13.9 32.33Q14.34 32.33 14.53 32.55Q14.68 32.72 14.68 33.03Q14.68 33.43 14.48 33.63Q14.28 33.82 13.9 33.82Q13.5 33.82 13.17 33.96Q12.83 34.1 12.55 34.38Q12.27 34.66 12.13 35Q12 35.33 12 35.73L12 38.99Q12 40.23 12.43 41.29Q12.87 42.35 13.74 43.23Q14.63 44.13 15.71 44.57Q16.75 44.99 17.97 44.99L32.02 44.99Q33.24 44.99 34.28 44.57Q35.36 44.13 36.25 43.23Q37.12 42.35 37.56 41.29Q38 40.23 38 38.99L38 35.73Q38 34.77 37.52 34.3Q37.04 33.82 36.09 33.82Q35.71 33.82 35.51 33.63ZM36.09 34.82C35.11 34.82 34.31 34.02 34.31 33.03C34.31 32.03 35.11 31.23 36.09 31.23C36.33 31.23 36.56 31.13 36.73 30.96C36.9 30.79 37 30.56 37 30.32L36.99 27.06C36.99 24.3 34.76 22.05 32.02 22.05L17.97 22.05C15.23 22.05 13 24.3 13 27.06L13 30.43C13 30.67 13.09 30.9 13.26 31.07C13.43 31.24 13.66 31.33 13.9 31.33C14.91 31.33 15.68 32.06 15.68 33.03C15.68 34.02 14.88 34.82 13.9 34.82C13.4 34.82 13 35.23 13 35.73L13 38.99C13 41.75 15.22 43.99 17.97 43.99L32.02 43.99C34.77 43.99 37 41.75 37 38.99L37 35.73C37 35.23 36.59 34.82 36.09 34.82Z" fill="url(#paint_linear_11_478_0)" fill-opacity="1.000000" fill-rule="evenodd"/>
	<g filter="url(#filter_11_479_dd)">
		<path id="Vector" d="M29.11 32.52L27.7 33.92L28.03 35.9C28.09 36.24 27.95 36.58 27.68 36.78C27.4 36.99 27.04 37.01 26.74 36.85L24.99 35.92L23.24 36.85C23.12 36.92 22.97 36.96 22.83 36.96C22.65 36.96 22.47 36.9 22.31 36.78C22.04 36.58 21.9 36.24 21.96 35.9L22.29 33.92L20.88 32.52C20.63 32.28 20.55 31.93 20.65 31.6C20.76 31.27 21.04 31.03 21.37 30.99L23.32 30.7L24.2 28.9C24.35 28.59 24.66 28.39 24.99 28.39L25 28.39C25.34 28.39 25.64 28.59 25.79 28.9L26.67 30.7L28.62 30.99C28.95 31.03 29.23 31.27 29.34 31.6C29.44 31.93 29.36 32.28 29.11 32.52Z" fill="url(#paint_linear_11_479_0)" fill-opacity="1.000000" fill-rule="nonzero"/>
	</g>
	<path id="Vector" d="M24.99 35.92L23.24 36.85C23.12 36.92 22.97 36.96 22.83 36.96C22.65 36.96 22.47 36.9 22.31 36.78C22.04 36.58 21.9 36.24 21.96 35.9L22.29 33.92L20.88 32.52C20.63 32.28 20.55 31.93 20.65 31.6C20.76 31.27 21.04 31.03 21.37 30.99L23.32 30.7L24.2 28.9C24.35 28.59 24.66 28.39 24.99 28.39L25 28.39C25.34 28.39 25.64 28.59 25.79 28.9L26.67 30.7L28.62 30.99C28.95 31.03 29.23 31.27 29.34 31.6C29.44 31.93 29.36 32.28 29.11 32.52L27.7 33.92L28.03 35.9C28.09 36.24 27.95 36.58 27.68 36.78C27.4 36.99 27.04 37.01 26.74 36.85L24.99 35.92ZM28.97 32.38L27.48 33.85L27.5 33.96L27.83 35.93Q27.85 36.05 27.84 36.16Q27.82 36.24 27.79 36.32Q27.76 36.41 27.71 36.48Q27.64 36.56 27.56 36.62Q27.46 36.69 27.35 36.73Q27.28 36.75 27.2 36.76Q27.13 36.76 27.05 36.75Q26.94 36.73 26.84 36.67L24.99 35.69L23.15 36.68Q23.03 36.74 22.91 36.75Q22.87 36.76 22.83 36.76Q22.74 36.76 22.66 36.73Q22.54 36.7 22.43 36.62Q22.35 36.56 22.29 36.48Q22.23 36.41 22.2 36.32Q22.16 36.24 22.15 36.16Q22.14 36.05 22.16 35.93L22.51 33.85L21.02 32.38Q20.94 32.31 20.89 32.22Q20.85 32.14 20.83 32.05Q20.81 31.96 20.81 31.88Q20.81 31.77 20.84 31.66Q20.88 31.55 20.94 31.46Q20.99 31.39 21.06 31.34Q21.13 31.28 21.21 31.24Q21.3 31.2 21.4 31.18L23.46 30.88L24.38 28.98Q24.43 28.88 24.51 28.8Q24.56 28.74 24.63 28.7Q24.71 28.65 24.8 28.62Q24.89 28.59 24.99 28.59L25 28.59Q25.1 28.59 25.19 28.62Q25.28 28.65 25.36 28.7Q25.43 28.74 25.48 28.8Q25.56 28.88 25.61 28.98L26.53 30.88L28.59 31.18Q28.69 31.2 28.78 31.24Q28.86 31.28 28.93 31.34Q29 31.39 29.04 31.45Q29.11 31.55 29.15 31.66Q29.18 31.77 29.18 31.89Q29.18 31.97 29.16 32.05Q29.14 32.14 29.1 32.22Q29.05 32.31 28.97 32.38Z" fill="url(#paint_linear_11_479_1)" fill-opacity="0.500000" fill-rule="evenodd"/>
</svg>
