<svg width="137.000000" height="28.000000" viewBox="0 0 137 28" fill="none" xmlns="http://www.w3.org/2000/svg" xmlns:xlink="http://www.w3.org/1999/xlink">
	<desc>
			Created with Pixso.
	</desc>
	<defs/>
	<path id="Vector" d="M24.48 14.06L24.5 14.07L26.4 14.26C26.53 14.28 26.65 14.34 26.74 14.45L26.75 14.46L26.73 14.47C26.82 14.58 26.86 14.73 26.84 14.87C26.43 18.16 24.87 21.2 22.43 23.46C19.91 25.8 16.59 27.1 13.15 27.1C11.48 27.1 9.82 26.8 8.26 26.19L8.17 26.16C8.05 26.11 7.94 26.02 7.89 25.89L7.88 25.87C7.83 25.75 7.82 25.61 7.87 25.48L8.62 23.66C8.72 23.4 9.01 23.27 9.27 23.36L9.29 23.37C13.11 24.85 17.44 24.01 20.45 21.23C22.36 19.47 23.59 17.09 23.93 14.52C23.97 14.25 24.2 14.06 24.46 14.06L24.48 14.06ZM69.25 6.32C70.87 6.32 72.13 6.81 72.94 7.76L72.97 7.79L72.97 6.99C72.98 6.76 73.15 6.58 73.37 6.56L73.39 6.56L75.55 6.56C75.77 6.58 75.95 6.75 75.96 6.97L75.97 6.99L75.97 18.96C76.04 20.65 75.52 22.31 74.5 23.66C73.34 25.07 71.57 25.79 69.25 25.79C66.03 25.79 63.48 23.75 63.07 20.83C63.04 20.62 63.17 20.43 63.37 20.36L63.39 20.36L65.5 19.86C65.51 19.86 65.52 19.86 65.53 19.86C65.76 19.82 65.98 19.98 66.01 20.21C66.2 21.85 67.61 23.07 69.25 23.03C71.74 23.03 72.92 21.76 72.94 19.11L72.94 19.03L72.94 17.98C72.01 19.03 70.66 19.61 69.25 19.56C65.67 19.56 63.07 16.78 63.07 12.95C63.04 11.23 63.64 9.56 64.77 8.26C65.92 7 67.55 6.29 69.25 6.32ZM4.34 20.88L4.37 20.88L4.4 20.88C5.26 20.89 5.95 21.58 5.96 22.44L5.96 22.47C5.96 22.48 5.96 22.49 5.96 22.49C5.94 23.37 5.22 24.07 4.34 24.06C3.46 24.04 2.76 23.32 2.78 22.44C2.79 21.58 3.49 20.89 4.34 20.88ZM106.59 6.15L106.7 6.15C110.55 6.2 112.94 8.89 112.94 13.18C112.94 13.41 112.93 13.63 112.9 13.86C112.88 14.07 112.71 14.23 112.51 14.24L112.49 14.24L103.33 14.24C103.39 16.16 104.98 17.68 106.9 17.65C108.39 17.75 109.75 16.8 110.18 15.37C110.26 15.16 110.48 15.05 110.69 15.11L110.7 15.12L112.53 15.76C112.63 15.79 112.72 15.86 112.76 15.96L112.77 15.98C112.82 16.07 112.83 16.19 112.79 16.29C111.94 18.81 109.55 20.47 106.9 20.39C105.16 20.41 103.49 19.73 102.25 18.51C100.91 17.09 100.19 15.19 100.26 13.23C100.26 8.84 103.41 6.2 106.5 6.15L106.59 6.15ZM54.76 6.15L54.77 6.15C58.69 6.15 61.13 8.84 61.13 13.18C61.12 13.41 61.11 13.63 61.09 13.86C61.07 14.07 60.9 14.23 60.69 14.24L60.67 14.24L51.52 14.24C51.57 16.17 53.17 17.69 55.1 17.65C56.59 17.75 57.95 16.8 58.38 15.37C58.45 15.16 58.68 15.05 58.89 15.11L58.91 15.12L60.73 15.76C60.84 15.79 60.93 15.87 60.97 15.98C61.01 16.08 61.01 16.19 60.97 16.29C60.12 18.81 57.73 20.47 55.08 20.39C53.34 20.41 51.66 19.73 50.43 18.51C49.08 17.09 48.36 15.19 48.43 13.23C48.43 8.8 51.65 6.15 54.76 6.15ZM40.89 6.15C42.65 6.15 44.08 6.57 45.13 7.42C45.84 7.98 46.37 8.75 46.65 9.62L46.65 9.62C46.69 9.77 46.6 9.92 46.45 9.96L46.44 9.97L44.25 10.69C44.16 10.73 44.05 10.73 43.95 10.69C43.87 10.65 43.81 10.58 43.78 10.49L43.77 10.45C43.57 9.74 42.92 8.6 40.89 8.6C39.45 8.6 38.59 9.42 38.59 10.23L38.59 10.26C38.6 10.78 38.88 11.43 40.13 11.68L40.16 11.69L42.57 12.14C45.23 12.67 46.76 14.12 46.79 16.13L46.79 16.19L46.78 16.16L46.78 16.22C46.74 18.23 44.79 20.36 41.2 20.36C36.99 20.36 35.33 17.97 35.03 16.57C35.01 16.42 35.1 16.28 35.24 16.24L35.25 16.24L37.5 15.53C37.54 15.53 37.59 15.53 37.63 15.53C37.68 15.53 37.74 15.55 37.79 15.57L37.81 15.58C37.89 15.62 37.95 15.69 37.98 15.78C38.26 17.13 39.48 17.94 41.24 17.94C42.87 17.94 43.61 17.08 43.61 16.31C43.61 15.54 42.97 14.97 41.85 14.74L41.81 14.73L39.29 14.24C36.93 13.8 35.46 12.33 35.46 10.43C35.46 8.11 37.95 6.15 40.89 6.15ZM131.71 2.4L133.67 2.4C133.91 2.41 134.09 2.6 134.1 2.83L134.1 2.85L134.1 6.54L136.46 6.54C136.69 6.56 136.87 6.75 136.88 6.97L136.88 6.99L136.88 8.96L136.88 8.97C136.88 9.19 136.7 9.37 136.48 9.38L136.46 9.38L134.1 9.38L134.1 15.95C134.1 17.04 134.53 17.49 135.64 17.49C135.87 17.49 136.09 17.47 136.31 17.44L136.4 17.43C136.52 17.41 136.64 17.44 136.74 17.52C136.82 17.6 136.88 17.71 136.88 17.83L136.88 17.85L136.88 19.7C136.89 19.89 136.76 20.05 136.58 20.11C136.06 20.25 135.53 20.33 134.99 20.33L134.92 20.32C132.57 20.32 131.1 18.83 131.07 16.41L131.07 16.34L131.07 9.41L129.02 9.41C128.8 9.4 128.62 9.22 128.6 9L128.6 8.98L128.6 7.01C128.6 6.78 128.77 6.58 129 6.56L129.02 6.56L129.57 6.56L129.63 6.56C130.27 6.54 131.26 6.28 131.28 4.84L131.28 4.8L131.28 2.85C131.28 2.61 131.46 2.42 131.69 2.4L131.71 2.4ZM93.46 6.15L93.51 6.15L93.51 6.15C95.83 6.15 98.17 7.77 98.21 11.29L98.21 11.4L98.21 19.74C98.2 19.96 98.03 20.14 97.81 20.17L97.79 20.17L95.63 20.17C95.41 20.15 95.23 19.98 95.21 19.76L95.21 19.74L95.21 11.67L95.21 11.61C95.2 10.58 94.85 8.93 92.73 8.93C91.16 8.93 90.05 10.15 90.03 11.92L90.03 11.97L90.03 19.74C90.02 19.96 89.84 20.14 89.62 20.17L89.6 20.17L87.42 20.17C87.2 20.15 87.02 19.98 87 19.76L87 19.74L87 11.67L87 11.61C86.98 10.58 86.63 8.93 84.52 8.93C82.89 8.93 81.79 10.14 81.77 11.94L81.77 12L81.77 19.74C81.75 19.96 81.58 20.14 81.36 20.17L81.34 20.17L79.19 20.17C78.96 20.15 78.79 19.98 78.77 19.76L78.77 19.74L78.77 6.96C78.78 6.74 78.95 6.56 79.17 6.53L79.19 6.53L81.26 6.53C81.48 6.55 81.66 6.72 81.68 6.94L81.68 6.96L81.68 7.73C82.62 6.71 83.95 6.13 85.33 6.15C86.94 6.1 88.43 6.95 89.22 8.35C90.15 6.93 91.76 6.09 93.46 6.15ZM125.76 7.74C126.58 8.83 127.01 10.17 126.97 11.53L126.96 11.59L126.96 19.74C126.95 19.96 126.78 20.14 126.56 20.17L126.55 20.17L124.36 20.17C124.14 20.15 123.96 19.98 123.94 19.76L123.94 19.74L123.94 12.03C123.94 10.01 122.99 8.98 121.19 8.98C120.39 8.96 119.63 9.31 119.14 9.94C118.66 10.62 118.42 11.44 118.43 12.28L118.44 12.33L118.44 19.74C118.42 19.96 118.25 20.14 118.03 20.17L118.01 20.17L115.83 20.17C115.61 20.15 115.43 19.98 115.41 19.76L115.41 19.74L115.41 6.95C115.42 6.73 115.59 6.55 115.82 6.53L115.83 6.52L117.96 6.52C118.19 6.54 118.36 6.71 118.38 6.93L118.38 6.95L118.38 7.85C119.3 6.75 120.67 6.12 122.1 6.15C123.5 6.09 124.85 6.68 125.76 7.74ZM0.26 14.61L15.76 14.61C16.05 14.61 16.28 14.84 16.28 15.12L16.28 15.14L16.28 17.08C16.29 17.37 16.06 17.6 15.78 17.61L15.76 17.61L0.26 17.61C-0.03 17.61 -0.26 17.38 -0.26 17.1L-0.26 17.08L-0.26 15.14L-0.26 15.12C-0.26 14.85 -0.04 14.62 0.24 14.61L0.26 14.61ZM69.63 9.01C67.5 9.01 66.15 10.52 66.15 12.95C66.15 15.39 67.48 16.89 69.63 16.89C71.67 16.89 73.05 15.31 73.05 12.95C73.05 10.59 71.67 9.01 69.63 9.01ZM51.61 11.64L51.61 11.69L58.01 11.69C57.86 9.98 56.65 8.91 54.84 8.89L54.79 8.89C53.2 8.86 51.84 10.03 51.62 11.59L51.61 11.64ZM103.44 11.64L103.44 11.69L109.85 11.69C109.69 9.98 108.48 8.91 106.68 8.89L106.62 8.89C105.03 8.86 103.67 10.03 103.45 11.59L103.44 11.64ZM17.7 -0.2C17.84 -0.15 17.94 -0.05 18 0.08C18.06 0.21 18.06 0.36 18 0.49L17.33 2.29C17.23 2.56 16.94 2.7 16.67 2.61C13.14 1.37 9.21 2.07 6.32 4.46C4.52 5.97 3.24 8.01 2.66 10.28C2.6 10.51 2.4 10.67 2.16 10.68L2.04 10.68L0.19 10.23C0.05 10.2 -0.07 10.11 -0.14 9.99L-0.15 9.99C-0.23 9.86 -0.25 9.72 -0.21 9.58C0.53 6.66 2.17 4.05 4.49 2.14C8.18 -0.9 13.19 -1.79 17.7 -0.2ZM10.83 7.58L26.34 7.58C26.62 7.58 26.84 7.8 26.86 8.08L26.86 8.1L26.86 10.04C26.86 10.32 26.64 10.56 26.36 10.57L26.34 10.57L10.83 10.57C10.55 10.56 10.32 10.34 10.32 10.05L10.32 10.04L10.32 8.11C10.31 7.83 10.54 7.6 10.82 7.58L10.83 7.58ZM21.6 1.66L21.62 1.66L21.65 1.66C22.51 1.67 23.2 2.37 23.21 3.22L23.21 3.25C23.21 3.26 23.21 3.27 23.21 3.28C23.2 4.16 22.47 4.85 21.6 4.84C20.72 4.82 20.02 4.1 20.03 3.22C20.05 2.36 20.74 1.67 21.6 1.66Z" fill="#4FB58B" fill-opacity="1.000000" fill-rule="nonzero"/>
</svg>
