<svg width="138.000000" height="33.000000" viewBox="0 0 138 33" fill="none" xmlns="http://www.w3.org/2000/svg" xmlns:xlink="http://www.w3.org/1999/xlink">
	<desc>
			Created with Pixso.
	</desc>
	<defs/>
	<path id="Vector" d="M0.18 24.32C0.02 24.23 -0.12 23.99 -0.12 23.81L-0.12 8.32C-0.12 8.13 0.02 7.9 0.18 7.81L13.76 0.07C13.93 -0.03 14.2 -0.03 14.36 0.07L27.94 7.81C28.11 7.9 28.24 8.13 28.24 8.32L28.24 23.81C28.24 24 28.11 24.23 27.94 24.32L14.36 32.06C14.2 32.16 13.93 32.16 13.76 32.06L0.18 24.32ZM41 9.86L41 16.14L43.68 16.14C45.63 16.14 46.5 15.35 46.5 14.05L46.5 11.96C46.5 10.66 45.63 9.86 43.68 9.86L41 9.86ZM41 18.14L41 23.75C41 24.08 40.91 24.23 40.61 24.23L39.29 24.23C39 24.23 38.9 24.08 38.9 23.75L38.9 8.35C38.9 8.01 39 7.87 39.29 7.87L43.68 7.87C47.41 7.87 48.6 9.6 48.6 11.57L48.6 14.44C48.6 16.41 47.41 18.14 43.68 18.14L41 18.14ZM53.49 9.86L53.49 15.76L56.17 15.76C58.12 15.76 58.99 14.99 58.99 13.67L58.99 11.96C58.99 10.66 58.12 9.86 56.17 9.86L53.49 9.86ZM53.49 17.76L53.49 23.75C53.49 24.08 53.4 24.23 53.1 24.23L51.77 24.23C51.49 24.23 51.38 24.08 51.38 23.75L51.38 8.35C51.38 8.01 51.49 7.87 51.77 7.87L56.17 7.87C59.9 7.87 61.09 9.6 61.09 11.57L61.09 14.07C61.09 15.54 60.42 16.87 58.55 17.44L61.15 23.75C61.26 24.04 61.07 24.23 60.76 24.23L59.46 24.23C59.16 24.23 59.12 24.04 58.99 23.75L56.54 17.76L53.49 17.76ZM72.47 11.76C72.47 10.47 71.56 9.67 69.5 9.67C67.47 9.67 66.55 10.47 66.55 11.76L66.55 20.33C66.55 21.63 67.47 22.42 69.5 22.42C71.56 22.42 72.47 21.63 72.47 20.33L72.47 11.76ZM64.31 11.38C64.31 9.41 65.59 7.67 69.5 7.67C73.43 7.67 74.71 9.41 74.71 11.38L74.71 20.72C74.71 22.69 73.43 24.42 69.5 24.42C65.59 24.42 64.31 22.69 64.31 20.72L64.31 11.38ZM86.78 7.87C87.08 7.87 87.21 7.99 87.21 8.32L87.21 9.41C87.21 9.74 87.08 9.86 86.78 9.86L83.12 9.86L83.12 23.75C83.12 24.08 83.01 24.23 82.71 24.23L81.29 24.23C81 24.23 80.88 24.08 80.88 23.75L80.88 9.86L77.23 9.86C76.91 9.86 76.79 9.74 76.79 9.41L76.79 8.32C76.79 7.99 76.91 7.87 77.23 7.87L86.78 7.87ZM97.43 11.76C97.43 10.47 96.52 9.67 94.46 9.67C92.43 9.67 91.51 10.47 91.51 11.76L91.51 20.33C91.51 21.63 92.43 22.42 94.46 22.42C96.52 22.42 97.43 21.63 97.43 20.33L97.43 11.76ZM89.27 11.38C89.27 9.41 90.55 7.67 94.46 7.67C98.39 7.67 99.67 9.41 99.67 11.38L99.67 20.72C99.67 22.69 98.39 24.42 94.46 24.42C90.55 24.42 89.27 22.69 89.27 20.72L89.27 11.38ZM112.9 23.77C112.9 24.08 112.82 24.23 112.51 24.23L111.32 24.23C111.11 24.23 111.02 24.16 110.93 24.01L105.84 14.1C105.37 13.21 105.11 12.46 105.06 12.37L105.06 23.77C105.06 24.08 104.96 24.23 104.67 24.23L103.46 24.23C103.18 24.23 103.07 24.08 103.07 23.77L103.07 8.32C103.07 8.01 103.18 7.87 103.46 7.87L104.67 7.87C104.85 7.87 104.96 7.94 105.02 8.06L110.24 18.19C110.54 18.77 110.91 19.73 110.91 19.73L110.91 8.32C110.91 8.01 111.04 7.87 111.32 7.87L112.51 7.87C112.82 7.87 112.9 8.01 112.9 8.32L112.9 23.77ZM116.63 24.23C116.35 24.23 116.24 24.08 116.24 23.75L116.24 8.35C116.24 8.01 116.35 7.87 116.63 7.87L124.03 7.87C124.32 7.87 124.45 7.99 124.45 8.32L124.45 9.41C124.45 9.74 124.32 9.86 124.03 9.86L118.34 9.86L118.34 14.72L123.64 14.72C123.95 14.72 124.08 14.84 124.08 15.18L124.08 16.22C124.08 16.53 123.95 16.67 123.64 16.67L118.34 16.67L118.34 22.23L124.27 22.23C124.55 22.23 124.68 22.33 124.68 22.66L124.68 23.77C124.68 24.11 124.55 24.23 124.27 24.23L116.63 24.23ZM136.62 7.87C136.9 7.87 137.03 7.99 137.03 8.32L137.03 9.41C137.03 9.74 136.9 9.86 136.62 9.86L133.16 9.86L133.16 23.75C133.16 24.08 133.05 24.23 132.77 24.23L131.42 24.23C131.14 24.23 131.03 24.08 131.03 23.75L131.03 9.86L127.57 9.86C127.26 9.86 127.16 9.74 127.16 9.41L127.16 8.32C127.16 7.99 127.26 7.87 127.57 7.87L136.62 7.87Z" fill="#A5A6F6" fill-opacity="1.000000" fill-rule="nonzero"/>
</svg>
