<svg width="137.000000" height="21.000000" viewBox="0 0 137 21" fill="none" xmlns="http://www.w3.org/2000/svg" xmlns:xlink="http://www.w3.org/1999/xlink">
	<desc>
			Created with Pixso.
	</desc>
	<defs/>
	<path id="Vector" d="M18.27 20.74L18.27 15.18L12.21 15.18C10.57 15.18 9.04 16.05 8.2 17.46L6.23 20.74L18.27 20.74Z" fill="#63D2F9" fill-opacity="1.000000" fill-rule="nonzero"/>
	<path id="Vector" d="M-1 -0.62L-1 4.94L14.94 4.94L18.27 -0.62L-1 -0.62Z" fill="#4E5EE4" fill-opacity="1.000000" fill-rule="nonzero"/>
	<path id="Vector" d="M6.63 8.07L-0.99 20.74L5.5 20.74L14.61 5.59L11.02 5.59C9.22 5.59 7.55 6.53 6.63 8.07Z" fill="#63B0F9" fill-opacity="1.000000" fill-rule="nonzero"/>
	<path id="Vector" d="M32.07 15.41C28.81 15.41 26.41 13.04 26.41 9.85C26.41 6.7 28.82 4.3 32.09 4.3C35.35 4.3 37.77 6.73 37.77 9.85C37.77 13.01 35.33 15.41 32.07 15.41ZM32.09 13.47C34.15 13.47 35.63 11.94 35.63 9.85C35.63 7.8 34.15 6.24 32.09 6.24C30.01 6.24 28.53 7.8 28.53 9.85C28.53 11.94 30.01 13.47 32.09 13.47ZM39.95 18.73L39.95 7.16L41.92 7.16L41.92 8.19L42.03 8.19C42.24 7.85 42.98 6.96 44.46 6.96C46.72 6.96 48.28 8.65 48.28 11.15C48.28 13.66 46.74 15.41 44.52 15.41C43.09 15.41 42.32 14.61 42.06 14.17L41.95 14.17L41.95 18.73L39.95 18.73ZM44.07 13.6C45.37 13.6 46.24 12.61 46.24 11.19C46.24 9.72 45.37 8.77 44.06 8.77C42.74 8.77 41.9 9.82 41.9 11.19C41.9 12.68 42.83 13.6 44.07 13.6ZM54 15.41C51.61 15.41 49.92 13.63 49.92 11.23C49.92 8.69 51.63 6.96 54 6.96C56.6 6.96 58.02 8.88 58.02 11.14L58.02 11.77L51.86 11.77C51.92 12.99 52.77 13.82 54.06 13.82C55.05 13.82 55.8 13.36 56.08 12.7L57.94 12.7C57.54 14.34 56.09 15.41 54 15.41ZM51.89 10.36L56.11 10.36C56.02 9.27 55.17 8.55 54 8.55C52.88 8.55 52.02 9.35 51.89 10.36ZM60.17 15.21L60.17 7.16L62.08 7.16L62.08 8.14L62.19 8.14C62.51 7.54 63.31 6.96 64.46 6.96C66.28 6.96 67.39 8.23 67.39 9.95L67.39 15.21L65.39 15.21L65.39 10.47C65.39 9.49 64.76 8.83 63.83 8.83C62.86 8.83 62.17 9.59 62.17 10.6L62.17 15.21L60.17 15.21ZM69.37 15.21L69.37 13.39L74.97 6.37L74.97 6.26L69.57 6.26L69.57 4.5L77.53 4.5L77.53 6.3L71.93 13.33L71.93 13.45L77.56 13.45L77.56 15.21L69.37 15.21ZM82.98 15.41C80.59 15.41 78.9 13.63 78.9 11.23C78.9 8.69 80.61 6.96 82.98 6.96C85.58 6.96 86.99 8.88 86.99 11.14L86.99 11.77L80.84 11.77C80.9 12.99 81.75 13.82 83.04 13.82C84.02 13.82 84.78 13.36 85.05 12.7L86.92 12.7C86.52 14.34 85.07 15.41 82.98 15.41ZM80.87 10.36L85.09 10.36C84.99 9.27 84.15 8.55 82.98 8.55C81.85 8.55 80.99 9.35 80.87 10.36ZM89.15 18.73L89.15 7.16L91.12 7.16L91.12 8.19L91.22 8.19C91.44 7.85 92.18 6.96 93.66 6.96C95.92 6.96 97.47 8.65 97.47 11.15C97.47 13.66 95.93 15.41 93.72 15.41C92.29 15.41 91.52 14.61 91.26 14.17L91.15 14.17L91.15 18.73L89.15 18.73ZM93.27 13.6C94.56 13.6 95.44 12.61 95.44 11.19C95.44 9.72 94.56 8.77 93.26 8.77C91.93 8.77 91.1 9.82 91.1 11.19C91.1 12.68 92.03 13.6 93.27 13.6ZM99.63 18.73L99.63 7.16L101.6 7.16L101.6 8.19L101.7 8.19C101.92 7.85 102.66 6.96 104.14 6.96C106.4 6.96 107.95 8.65 107.95 11.15C107.95 13.66 106.41 15.41 104.2 15.41C102.77 15.41 102 14.61 101.74 14.17L101.63 14.17L101.63 18.73L99.63 18.73ZM103.75 13.6C105.04 13.6 105.92 12.61 105.92 11.19C105.92 9.72 105.04 8.77 103.74 8.77C102.41 8.77 101.58 9.82 101.58 11.19C101.58 12.68 102.51 13.6 103.75 13.6ZM113.68 15.41C111.29 15.41 109.6 13.63 109.6 11.23C109.6 8.69 111.31 6.96 113.68 6.96C116.28 6.96 117.69 8.88 117.69 11.14L117.69 11.77L111.54 11.77C111.6 12.99 112.45 13.82 113.74 13.82C114.72 13.82 115.48 13.36 115.75 12.7L117.62 12.7C117.22 14.34 115.77 15.41 113.68 15.41ZM111.57 10.36L115.79 10.36C115.69 9.27 114.85 8.55 113.68 8.55C112.55 8.55 111.69 9.35 111.57 10.36ZM121.82 15.21C120.4 15.21 119.6 14.37 119.6 12.94L119.6 3.73L121.6 3.73L121.6 12.76C121.6 13.22 121.83 13.47 122.25 13.47L122.57 13.47L122.57 15.21L121.82 15.21ZM125.5 6.09C124.77 6.09 124.26 5.65 124.26 4.93C124.26 4.24 124.77 3.78 125.5 3.78C126.22 3.78 126.73 4.24 126.73 4.93C126.73 5.65 126.22 6.09 125.5 6.09ZM124.49 15.21L124.49 7.16L126.5 7.16L126.5 15.21L124.49 15.21ZM128.93 15.21L128.93 7.16L130.83 7.16L130.83 8.14L130.94 8.14C131.27 7.54 132.07 6.96 133.22 6.96C135.04 6.96 136.14 8.23 136.14 9.95L136.14 15.21L134.14 15.21L134.14 10.47C134.14 9.49 133.51 8.83 132.59 8.83C131.62 8.83 130.93 9.59 130.93 10.6L130.93 15.21L128.93 15.21Z" fill="#282846" fill-opacity="1.000000" fill-rule="nonzero"/>
</svg>
