<svg width="137.000000" height="21.000000" viewBox="0 0 137 21" fill="none" xmlns="http://www.w3.org/2000/svg" xmlns:xlink="http://www.w3.org/1999/xlink">
	<desc>
			Created with Pixso.
	</desc>
	<defs/>
	<path id="Vector" d="M129.65 8.79L129.65 11.65L131.66 11.65L131.66 14.48C131.67 14.7 131.66 14.93 131.63 15.13L131.61 15.23C131.61 15.25 131.61 15.27 131.6 15.3L131.58 15.37C131.58 15.38 131.58 15.39 131.57 15.4L131.55 15.48C131.37 16 130.83 16.66 129.6 16.66C128.3 16.66 127.78 15.9 127.64 15.37L127.62 15.3L127.61 15.23C127.57 15.01 127.55 14.74 127.55 14.48L127.55 5.52C127.55 5.24 127.57 4.94 127.62 4.69L127.66 4.54C127.66 4.53 127.66 4.51 127.67 4.5L127.68 4.44C127.69 4.43 127.69 4.41 127.69 4.4L127.72 4.33C127.91 3.84 128.4 3.18 129.59 3.18C130.52 3.18 131.01 3.55 131.28 3.94L131.33 4.01C131.34 4.04 131.35 4.06 131.37 4.09L131.4 4.16L131.44 4.23L131.47 4.3L131.49 4.37L131.51 4.43L131.53 4.49L131.54 4.54L131.55 4.6C131.56 4.62 131.56 4.65 131.57 4.68L131.58 4.77C131.58 4.78 131.58 4.8 131.58 4.81L131.6 4.95L131.6 5.08L131.61 5.26L131.61 5.35L131.61 6.44L136.55 6.44L136.55 5.76L136.55 5.52L136.55 5.33L136.55 5.11L136.54 5L136.54 4.81L136.52 4.63L136.51 4.5C136.18 1.19 133.69 -0.08 130.66 -0.31L130.46 -0.32L130.26 -0.33C130.15 -0.33 130.05 -0.34 129.95 -0.34L129.74 -0.34C129.71 -0.34 129.67 -0.34 129.64 -0.34L129.43 -0.34C129.39 -0.34 129.36 -0.34 129.32 -0.34L129.12 -0.33L128.91 -0.32L128.71 -0.31L128.51 -0.3C128.44 -0.29 128.38 -0.29 128.31 -0.28L128.11 -0.26C128.08 -0.25 128.05 -0.25 128.01 -0.25L127.82 -0.22C127.37 -0.15 126.93 -0.06 126.52 0.06L126.34 0.12C124.43 0.75 123.04 2.08 122.75 4.5L122.72 4.77L122.7 4.98L122.69 5.19L122.67 5.41C122.66 5.55 122.65 5.69 122.65 5.8L122.66 14.15L122.66 14.25L122.66 14.41L122.67 14.52L122.67 14.64L122.68 14.76L122.69 14.91L122.71 15.15L122.73 15.33C123.01 18.41 125.34 19.78 128.19 20.1L128.39 20.12C128.73 20.15 129.07 20.17 129.41 20.18L129.62 20.18L129.83 20.18C130.18 20.17 130.52 20.15 130.86 20.12L131.06 20.1C133.92 19.78 136.24 18.41 136.52 15.33L136.54 15.06L136.56 14.83L136.57 14.58L136.58 14.35L136.59 14.04L136.59 8.79L129.65 8.79ZM95.61 0.19L90.65 0.19L90.65 14.69C90.66 14.94 90.65 15.23 90.6 15.44L90.59 15.5L90.57 15.57C90.57 15.59 90.56 15.61 90.55 15.64L90.52 15.71C90.34 16.21 89.86 16.86 88.72 16.86C87.65 16.86 87.16 16.27 86.96 15.79L86.93 15.71C86.92 15.7 86.92 15.69 86.92 15.67L86.89 15.6L86.87 15.53C86.87 15.52 86.87 15.51 86.86 15.5L86.85 15.44C86.8 15.23 86.79 14.94 86.8 14.69L86.8 0.19L81.84 0.19L81.84 14.24L81.84 14.35L81.84 14.55L81.85 14.84L81.87 15.2L81.87 15.37L81.88 15.47L81.89 15.54C82.13 18.14 83.66 19.49 85.81 20.06L85.99 20.1C86.39 20.2 86.82 20.27 87.25 20.31L87.46 20.33L87.66 20.35L87.87 20.36C87.97 20.37 88.08 20.38 88.19 20.38L88.4 20.38L88.61 20.39C88.65 20.39 88.68 20.39 88.72 20.39L88.94 20.39C88.97 20.39 89.01 20.39 89.04 20.38L89.26 20.38C89.36 20.38 89.47 20.37 89.57 20.36L89.78 20.35L89.99 20.33L90.19 20.31C93.09 20.01 95.27 18.69 95.56 15.54L95.57 15.51L95.58 15.42L95.59 15.26L95.6 15.06L95.61 14.92L95.61 14.69L95.61 14.55L95.61 14.42L95.61 14.29C95.61 14.28 95.61 14.26 95.61 14.24L95.61 0.19ZM50.05 0.19L47.57 15.51L45.1 0.19L37.1 0.19L36.68 19.79L41.58 19.79L41.71 1.64L45.08 19.79L50.05 19.79L53.43 1.64L53.56 19.79L58.47 19.79L58.04 0.19L50.05 0.19ZM20.43 0.19L16.8 19.79L22.1 19.79L24.83 1.64L27.5 19.79L32.76 19.79L29.15 0.19L20.43 0.19ZM112.94 15.97L108.32 0.19L101.04 0.19L101.04 19.59L105.86 19.59L105.58 3.3L110.54 19.59L117.51 19.59L117.51 0.19L112.67 0.19L112.94 15.97ZM68.42 5.29C68.33 4.9 68.35 4.49 68.4 4.28C68.41 4.22 68.43 4.16 68.44 4.1L68.47 4.02C68.67 3.47 69.13 2.96 70.18 2.96C71.31 2.96 71.97 3.67 71.97 4.73L71.97 5.93L76.81 5.93L76.81 4.56C76.81 1.48 74.79 0.29 72.63 -0.13L72.45 -0.16L72.28 -0.19L72.1 -0.21L71.92 -0.24L71.74 -0.26L71.56 -0.27C71.51 -0.28 71.45 -0.28 71.39 -0.29L71.21 -0.3L71.04 -0.31L70.87 -0.32L70.69 -0.32L70.53 -0.33L70.28 -0.33L70.17 -0.33L69.95 -0.32C69.91 -0.32 69.88 -0.32 69.84 -0.32L69.62 -0.31C69.55 -0.31 69.48 -0.31 69.41 -0.3L69.2 -0.29C66.25 -0.06 63.95 1.15 63.49 3.99C63.35 4.85 63.32 5.62 63.53 6.6C63.88 8.21 65.22 9.36 66.76 10.32L66.99 10.47C67.03 10.49 67.07 10.51 67.11 10.54L67.36 10.68L67.6 10.82L67.84 10.96L68.21 11.16L69.17 11.69L69.41 11.82L69.64 11.95L69.86 12.08L70.08 12.21C71.13 12.83 71.97 13.46 72.28 14.22C72.44 14.67 72.41 15.24 72.33 15.6L72.31 15.66C72.29 15.75 72.27 15.83 72.23 15.92L72.2 16C71.98 16.52 71.49 16.97 70.42 16.97C69.2 16.97 68.47 16.27 68.47 15.21L68.47 13.33L63.26 13.33L63.26 14.82C63.26 18.33 65.49 19.86 68.28 20.31L68.49 20.34C68.63 20.36 68.77 20.38 68.91 20.39L69.12 20.41C69.37 20.44 69.62 20.45 69.88 20.46L70.09 20.46C70.13 20.46 70.17 20.46 70.2 20.46L70.31 20.46C70.39 20.46 70.46 20.46 70.53 20.46L70.75 20.46C70.78 20.46 70.82 20.46 70.86 20.45L71.07 20.45C71.14 20.44 71.21 20.44 71.28 20.43L71.49 20.42C71.63 20.4 71.77 20.39 71.9 20.37L72.11 20.35L72.31 20.32C72.37 20.31 72.44 20.3 72.51 20.28L72.7 20.25C75.06 19.77 76.82 18.49 77.17 16.02C77.22 15.66 77.25 15.32 77.27 15.01L77.28 14.8C77.28 14.77 77.28 14.74 77.28 14.71L77.28 14.52L77.28 14.34L77.28 14.16L77.27 14L77.26 13.85C77.26 13.82 77.26 13.8 77.26 13.77L77.25 13.63L77.24 13.5L77.22 13.38L77.2 13.21L77.18 13.07L77.15 12.91L77.14 12.85C76.8 11.14 75.3 9.93 73.64 8.94L73.4 8.8L73.16 8.66L72.92 8.53L72.56 8.33L72.08 8.07L71.26 7.64L70.93 7.45C70.89 7.43 70.85 7.41 70.82 7.39L70.6 7.27L70.39 7.15C69.36 6.56 68.58 5.97 68.42 5.29ZM4.65 5.24C4.56 4.87 4.58 4.48 4.62 4.25L4.64 4.17L4.66 4.08C4.83 3.5 5.27 2.89 6.43 2.89C7.57 2.89 8.25 3.6 8.25 4.67L8.25 5.88L13.14 5.88L13.14 4.51C13.14 1.56 11.31 0.33 9.26 -0.16L9.08 -0.2C8.94 -0.23 8.79 -0.26 8.64 -0.28L8.45 -0.31L8.27 -0.33L8.09 -0.36L7.91 -0.37C7.85 -0.38 7.8 -0.39 7.74 -0.39L7.56 -0.4L7.38 -0.42L7.21 -0.42L7.03 -0.43L6.86 -0.44L6.61 -0.44L6.52 -0.44C6.45 -0.44 6.38 -0.44 6.3 -0.44L6.09 -0.43C5.94 -0.43 5.8 -0.42 5.66 -0.41L5.45 -0.4C5.41 -0.4 5.38 -0.39 5.34 -0.39L5.13 -0.37C5.06 -0.36 4.99 -0.36 4.93 -0.35L4.72 -0.32C4.55 -0.3 4.39 -0.27 4.23 -0.24L4.03 -0.2L3.84 -0.16L3.65 -0.11C3.59 -0.1 3.53 -0.08 3.47 -0.06L3.28 -0.01C1.39 0.57 0.02 1.8 -0.33 3.92C-0.47 4.8 -0.49 5.57 -0.29 6.56C0.07 8.27 1.55 9.47 3.21 10.47L3.45 10.61C3.49 10.64 3.53 10.66 3.57 10.68L3.82 10.83L4.19 11.03L4.68 11.31L5.41 11.7L5.76 11.9L6.1 12.1L6.33 12.23C6.36 12.25 6.4 12.27 6.44 12.29L6.65 12.42C7.56 12.99 8.27 13.58 8.54 14.27C8.72 14.71 8.68 15.28 8.6 15.65L8.58 15.71C8.56 15.8 8.53 15.89 8.5 15.97L8.47 16.05C8.24 16.58 7.75 17.04 6.67 17.04C5.44 17.04 4.71 16.32 4.71 15.25L4.7 13.37L-0.56 13.37L-0.56 14.87C-0.56 19.07 2.61 20.46 6.13 20.56L6.35 20.57L6.57 20.57L6.79 20.57C6.9 20.56 7 20.56 7.11 20.56L7.32 20.55C7.43 20.54 7.54 20.54 7.64 20.53L7.85 20.51L8.06 20.49C8.13 20.48 8.19 20.47 8.26 20.46L8.46 20.44C8.53 20.43 8.6 20.42 8.66 20.41L8.86 20.37C11.31 19.91 13.13 18.62 13.49 16.08C13.54 15.72 13.58 15.38 13.59 15.07L13.6 14.87L13.61 14.68C13.61 14.62 13.61 14.56 13.61 14.5L13.61 14.32L13.61 14.15L13.6 14L13.59 13.85L13.58 13.71L13.57 13.57L13.55 13.39L13.53 13.23L13.51 13.05L13.47 12.87C13.13 11.18 11.68 9.98 10.05 8.99L9.81 8.85C9.77 8.83 9.73 8.8 9.69 8.78L9.45 8.64L9.21 8.51L8.96 8.37L8.72 8.24L7.64 7.67L7.3 7.49L7.08 7.36L6.86 7.24L6.65 7.12C6.61 7.1 6.58 7.08 6.54 7.06L6.34 6.94C5.45 6.4 4.8 5.86 4.65 5.24Z" fill="#1428A0" fill-opacity="1.000000" fill-rule="nonzero"/>
</svg>
