<svg width="137.000000" height="29.000000" viewBox="0 0 137 29" fill="none" xmlns="http://www.w3.org/2000/svg" xmlns:xlink="http://www.w3.org/1999/xlink">
	<desc>
			Created with Pixso.
	</desc>
	<defs/>
	<path id="Vector" d="M135.27 9.75C136.34 10.62 135.21 11.99 134.26 11.3C133.09 10.56 130.43 10.21 130.1 11.85C129.67 14.45 136.55 12.96 136.44 17.17C136.33 21.18 130.51 21.28 128.33 19.48C127.8 19.05 127.82 18.35 128.1 17.93C128.52 17.51 128.97 17.37 129.51 17.82C130.81 18.7 134.15 19.37 134.38 17.12C134.18 14.78 127.6 16.19 128.09 11.69C128.45 8.63 133.09 8.07 135.27 9.75ZM124.89 10.37L124.89 16.09C124.89 22.01 115.36 22.01 115.36 16.09L115.36 10.37C115.36 8.94 117.43 8.88 117.43 10.37L117.43 16.09C117.43 19.21 122.82 19.4 122.82 16.09L122.82 10.37C122.82 8.96 124.89 8.85 124.89 10.37ZM59.59 8.93C62.35 9.07 65.25 10.98 65.25 14.73C65.25 18.48 62.35 20.42 59.59 20.42C56.66 20.55 53.62 18.61 53.62 14.73C53.62 10.84 56.66 8.93 59.59 8.93ZM73.52 9.32C77.54 9.32 78.36 14.7 75.01 16.04L77.11 18.61C77.93 19.82 76.29 20.99 75.34 19.79L72.95 16.38L70.47 16.38L70.47 19.24C70.47 20.61 68.36 20.66 68.36 19.27L68.36 10.29C68.36 9.73 68.79 9.32 69.31 9.32L73.52 9.32ZM40.75 9.18C41.21 9.18 41.48 9.45 41.74 9.75L45.22 14.45L48.83 9.57C49.35 8.93 50.63 9.18 50.63 10.27L50.63 19.18C50.63 19.87 50.19 20.27 49.68 20.27C49.11 20.27 48.67 19.87 48.67 19.18L48.67 13.32L46.05 16.64C45.48 17.34 44.76 17.34 44.24 16.64L41.89 13.32L41.89 19.18C41.89 19.87 41.32 20.27 40.75 20.27C40.24 20.27 39.8 19.87 39.8 19.18L39.8 10.27C39.8 9.45 40.49 9.18 40.75 9.18ZM84.99 9.18C87.04 9.18 88.89 10.56 88.89 13.2C88.89 15.7 87.04 17.09 84.99 17.09L82.35 17.09L82.35 19.18C82.35 19.87 81.9 20.27 81.33 20.27C80.81 20.27 80.26 19.87 80.26 19.18L80.26 10.27C80.26 9.75 80.67 9.18 81.33 9.18L84.99 9.18ZM100.09 9.32C100.65 9.32 101.07 9.73 101.07 10.3L101.07 19.29C101.07 19.84 100.65 20.27 100.09 20.27C99.52 20.27 99.02 19.84 99.02 19.29L99.02 15.82L93.86 15.82L93.86 19.29C93.86 19.84 93.45 20.27 92.9 20.27C92.18 20.27 91.77 19.84 91.77 19.29L91.77 10.3C91.77 9.73 92.18 9.32 92.9 9.32C93.45 9.32 93.86 9.73 93.86 10.3L93.86 13.75L99.02 13.75L99.02 10.3C99.02 9.73 99.52 9.32 100.09 9.32ZM111.1 9.32C112.56 9.32 112.52 11.38 111.1 11.38L106.55 11.38L106.55 13.75L110.53 13.75C111.94 13.75 111.94 15.82 110.53 15.82L106.55 15.82L106.55 18.19L111.37 18.19C112.81 18.19 112.92 20.27 111.37 20.27L105.42 20.27C104.87 20.27 104.44 19.84 104.44 19.29L104.44 10.3C104.44 9.73 104.87 9.32 105.42 9.32L111.1 9.32ZM59.41 10.98C57.64 10.98 55.71 12.23 55.71 14.73C55.71 17.21 57.64 18.48 59.41 18.48C61.23 18.48 63.18 17.21 63.18 14.73C63.18 12.23 61.23 10.98 59.41 10.98ZM84.99 11.17L82.35 11.17L82.35 15.11L84.99 15.11C86.05 15.11 86.89 14.18 86.89 13.2C86.89 12.09 86.05 11.17 84.99 11.17ZM73.52 11.24L70.47 11.24L70.47 14.56L73.52 14.56C75.58 14.56 75.7 11.24 73.52 11.24Z" fill="#3DB5E6" fill-opacity="1.000000" fill-rule="nonzero"/>
	<path id="Vector" d="M27.25 17.62C25.71 23.82 20.07 28.23 13.42 28.23C6.75 28.23 1.16 23.56 -0.32 17.34C1.45 17.34 3.12 17.35 3.89 17.35C4.25 17.35 4.32 17.35 4.34 17.35C4.93 17.32 5.65 17.13 6.14 15.95L7.98 11.12L12.08 20.99C12.45 21.78 13.07 21.73 13.43 21.73L13.47 21.73C14.18 21.73 14.5 21.47 14.77 20.96L19.4 11.2L20.98 15.6L21.07 15.81C21.41 16.54 21.65 17.27 22.48 17.36C22.65 17.38 24.62 17.34 27.29 17.34C27.29 17.34 27.29 17.36 27.25 17.62Z" fill="#3DB5E6" fill-opacity="1.000000" fill-rule="nonzero"/>
	<path id="Vector" d="M27.7 13.98C27.7 14.05 27.7 14.24 27.7 14.24L27.7 14.24L23.44 14.24L20.96 7.3C20.74 6.78 20.41 6.01 19.44 6.01C18.84 6.01 18.31 6.5 18 7.3L13.5 17.73L9.17 7.37C8.74 6.45 8.45 6.01 7.6 6.01C7.03 6.01 6.6 6.23 6.14 7.32L3.57 14.34L-0.7 14.33C-0.71 14.23 -0.71 14.12 -0.71 14.01C-0.71 6.21 5.62 -0.1 13.42 -0.1C21.23 -0.1 27.7 6.17 27.7 13.98Z" fill="#D8292F" fill-opacity="1.000000" fill-rule="nonzero"/>
</svg>
