<svg width="137.000000" height="17.000000" viewBox="0 0 137 17" fill="none" xmlns="http://www.w3.org/2000/svg" xmlns:xlink="http://www.w3.org/1999/xlink">
	<desc>
			Created with Pixso.
	</desc>
	<defs/>
	<path id="Vector" d="M58.35 10.75L67.41 10.75L62.62 3.04L53.83 16.98L49.82 16.98L60.52 0.24C60.99 -0.44 61.76 -0.85 62.62 -0.85C63.45 -0.85 64.23 -0.46 64.68 0.21L75.42 16.98L71.42 16.98L69.53 13.86L60.35 13.86L58.35 10.75ZM99.93 13.86L99.93 -0.68L96.53 -0.68L96.53 15.29C96.53 15.72 96.7 16.15 97.03 16.47C97.35 16.8 97.79 16.98 98.27 16.98L113.76 16.98L115.76 13.86L99.93 13.86ZM43.74 11.26C47.03 11.26 49.71 8.59 49.71 5.29C49.71 2 47.03 -0.68 43.74 -0.68L28.88 -0.68L28.88 16.98L32.27 16.98L32.27 2.43L43.51 2.43C45.09 2.43 46.36 3.72 46.36 5.29C46.36 6.87 45.09 8.16 43.51 8.16L33.93 8.14L44.07 16.98L49.01 16.98L42.19 11.26L43.74 11.26ZM7.97 16.98C3.1 16.98 -0.86 13.03 -0.86 8.16C-0.86 3.28 3.1 -0.68 7.97 -0.68L18.24 -0.68C23.12 -0.68 27.07 3.28 27.07 8.16C27.07 13.03 23.12 16.98 18.24 16.98L7.97 16.98ZM18.01 13.86C21.17 13.86 23.73 11.31 23.73 8.16C23.73 5 21.17 2.43 18.01 2.43L8.2 2.43C5.04 2.43 2.49 5 2.49 8.16C2.49 11.31 5.04 13.86 8.2 13.86L18.01 13.86ZM82.51 16.98C77.63 16.98 73.67 13.03 73.67 8.16C73.67 3.28 77.63 -0.68 82.51 -0.68L94.7 -0.68L92.71 2.43L82.73 2.43C79.58 2.43 77.01 5 77.01 8.16C77.01 11.31 79.58 13.86 82.73 13.86L94.98 13.86L92.98 16.98L82.51 16.98ZM124.04 13.86C121.44 13.86 119.22 12.12 118.55 9.71L133.06 9.71L135.07 6.59L118.55 6.59C119.22 4.2 121.44 2.43 124.04 2.43L134.01 2.43L136.02 -0.68L123.82 -0.68C118.94 -0.68 114.98 3.28 114.98 8.16C114.98 13.03 118.94 16.98 123.82 16.98L134.29 16.98L136.29 13.86L124.04 13.86Z" fill="#EA1B22" fill-opacity="1.000000" fill-rule="nonzero"/>
</svg>
