<svg width="137.000000" height="25.000000" viewBox="0 0 137 25" fill="none" xmlns="http://www.w3.org/2000/svg" xmlns:xlink="http://www.w3.org/1999/xlink">
	<desc>
			Created with Pixso.
	</desc>
	<defs/>
	<path id="Vector" d="M2.43 19.31C1.4 19.32 0.45 18.76 -0.06 17.87C-0.56 16.98 -0.53 15.89 0.02 15.03L5.15 6.98C5.68 6.1 6.65 5.58 7.67 5.61C8.7 5.63 9.64 6.21 10.12 7.12C10.6 8.02 10.54 9.11 9.97 9.96L4.85 18C4.32 18.82 3.41 19.32 2.43 19.31Z" fill="#F62B54" fill-opacity="1.000000" fill-rule="nonzero"/>
	<path id="Vector" d="M11.22 19.31C10.19 19.31 9.24 18.76 8.74 17.87C8.24 16.99 8.27 15.9 8.81 15.04L13.93 7.01C14.45 6.12 15.42 5.58 16.46 5.61C17.5 5.63 18.44 6.22 18.92 7.13C19.4 8.04 19.33 9.13 18.74 9.98L13.63 18C13.1 18.82 12.19 19.32 11.22 19.31Z" fill="#FFCC00" fill-opacity="1.000000" fill-rule="nonzero"/>
	<path id="Vector" d="M22.45 16.8C22.45 18.23 21.27 19.38 19.81 19.38C18.35 19.38 17.17 18.23 17.17 16.8C17.17 15.37 18.35 14.22 19.81 14.22C21.27 14.22 22.45 15.37 22.45 16.8Z" fill="#00CA72" fill-opacity="1.000000" fill-rule="evenodd"/>
	<path id="Vector" d="M134.38 14.37C135.18 14.37 135.65 14.93 135.65 15.86L135.65 19.04L136.74 19.04L136.74 15.79C136.74 14.21 135.99 13.29 134.59 13.29C134.05 13.29 133.18 13.44 132.66 14.45C132.42 13.85 131.86 13.42 131.21 13.35C131.01 13.32 130.81 13.31 130.6 13.32C130.16 13.35 129.37 13.63 129.07 14.26L129.07 13.42L127.99 13.42L127.99 19.04L129.07 19.04L129.07 16C129.07 14.82 129.84 14.37 130.62 14.37C131.34 14.37 131.82 14.92 131.82 15.85L131.82 19.04L132.89 19.04L132.89 16C132.89 15.06 133.46 14.35 134.38 14.37ZM124.01 18.1C124.51 18.11 124.98 17.91 125.33 17.56C125.68 17.2 125.86 16.71 125.84 16.21C125.84 15.08 125.01 14.37 124.01 14.37C123.01 14.37 122.18 15.08 122.18 16.21C122.16 16.71 122.34 17.2 122.69 17.55C123.03 17.91 123.51 18.11 124 18.1L124.01 18.1ZM124.01 19.16C122.43 19.16 121.11 17.99 121.11 16.2C121.11 14.42 122.43 13.29 124.01 13.29C125.59 13.29 126.92 14.42 126.92 16.2C126.92 17.99 125.59 19.16 124 19.16L124.01 19.16ZM115.53 16.2L115.52 16.21C115.52 14.43 116.88 13.29 118.47 13.29C119.28 13.27 120.06 13.6 120.61 14.19L119.79 14.89C119.44 14.54 118.97 14.35 118.47 14.36C117.47 14.36 116.61 15.07 116.61 16.2C116.61 16.97 117.06 17.66 117.76 17.95C118.46 18.24 119.26 18.08 119.79 17.54L120.63 18.24C120.07 18.84 119.29 19.17 118.47 19.16C116.89 19.16 115.53 17.99 115.53 16.2ZM112.07 17.96C112.07 17.76 112.14 17.57 112.28 17.43C112.42 17.29 112.61 17.2 112.81 17.2C113.01 17.2 113.2 17.29 113.34 17.43C113.47 17.57 113.55 17.76 113.55 17.96C113.53 18.36 113.2 18.67 112.81 18.67C112.41 18.67 112.09 18.36 112.07 17.96Z" fill="#333333" fill-opacity="1.000000" fill-rule="nonzero"/>
	<path id="Vector" d="M115.03 6.26L111.18 6.26L108.47 13.23L105.79 6.26L101.93 6.26L106.62 17.27L103.7 24.55L107.53 24.55L115.03 6.26ZM91.59 12.39C91.59 14.14 93.13 15.3 94.64 15.3C96.12 15.3 97.58 14.22 97.58 12.38C97.58 10.55 96.12 9.47 94.64 9.47C93.13 9.47 91.59 10.63 91.59 12.38L91.59 12.39ZM97.58 18.53L97.58 17.14C96.8 18.32 94.97 18.77 94.04 18.77C90.94 18.77 87.84 16.33 87.84 12.38C87.84 8.44 90.94 6 94.04 6C94.82 6 96.64 6.26 97.58 7.63L97.58 6.27L101.17 6.27L101.17 18.53L97.58 18.53L97.58 18.53ZM86.82 18.53L83.23 18.53L83.23 17.01C82.63 18.14 81.17 18.79 79.66 18.79C76.54 18.79 73.78 16.3 73.78 12.43C73.78 8.5 76.54 6 79.66 6C81.17 6 82.63 6.63 83.23 7.76L83.23 -0.42L86.82 -0.42L86.82 18.53ZM83.15 12.36C83.15 10.52 81.82 9.44 80.34 9.44C78.8 9.44 77.53 10.6 77.53 12.36C77.53 14.17 78.8 15.32 80.34 15.32C81.85 15.33 83.15 14.12 83.15 12.36ZM64.89 12.04C64.89 10.18 65.86 9.55 67.13 9.55C68.36 9.55 69.24 10.36 69.24 11.99L69.24 18.53L72.86 18.53L72.86 11.2C72.86 7.71 71.14 6 68.41 6C66.98 6 65.54 6.81 64.89 8.05L64.89 6.26L61.28 6.26L61.28 18.53L64.89 18.53L64.89 12.04ZM53.93 18.74C50.49 18.74 47.63 16.22 47.63 12.36C47.63 8.49 50.49 6 53.93 6C57.37 6 60.26 8.49 60.26 12.36C60.26 16.22 57.37 18.74 53.93 18.74L53.93 18.74ZM53.93 15.17C55.44 15.17 56.69 14.06 56.69 12.36C56.69 10.7 55.44 9.57 53.93 9.57C53.2 9.56 52.49 9.85 51.97 10.38C51.46 10.9 51.18 11.62 51.2 12.36C51.2 14.07 52.45 15.17 53.93 15.17ZM41.14 9.55C42.21 9.55 43.15 10.39 43.15 11.99L43.15 18.53L46.74 18.53L46.74 11.57C46.74 7.86 44.94 6 42.05 6C41.19 6 39.58 6.26 38.41 8.18C37.73 6.76 36.43 6.02 34.51 6.02C33.14 6.02 31.9 6.81 31.33 8.05L31.33 6.27L27.71 6.27L27.71 18.53L31.33 18.53L31.33 12.04C31.33 10.18 32.34 9.55 33.43 9.55C34.48 9.55 35.41 10.36 35.44 11.91L35.44 18.53L39.06 18.53L39.06 12.04C39.06 10.26 40 9.55 41.14 9.55L41.14 9.55Z" fill="#333333" fill-opacity="1.000000" fill-rule="nonzero"/>
</svg>
